# xmcd
#
# Track frame offsets:
#	150
#	15473
#	32155
#	57354
#	77990
#	94851
#	112531
#	134313
#	151681
#	171093
#	191653
#	214799
#
# Disc length: 3079 seconds
#
# Revision: 0
# Processed by: cddbd v1.5.2PL0 Copyright (c) Steve Scherf et al.
# Submitted via: EZCDAudioConverter 3.1.3.1
#
DISCID=910c050c
DTITLE=Various Artist - The Blues Magazine - The Future Is Now!
DYEAR=2015
DGENRE=Blues
TTITLE0=Gary Clark Jr. - Grinder
TTITLE1=Mike Zito and The Wheel - Keep Coming Back
TTITLE2=Walter Trout - My Ship Came In
TTITLE3=Tommy Castro and The Painkillers - Shine A Light
TTITLE4=Shemekia Copeland - Devil's Hand
TTITLE5=Chris King Robinson - (Why) Don't You Give Me Your Love?
TTITLE6=Dirty Thrills - No Resolve
TTITLE7=Lauren Housley - Ghost Town Blues
TTITLE8=Gerry Jablonski and The Electric Band - Fork Fed Dog
TTITLE9=Joe Louis Walker - One Sunny Day
TTITLE10=Long John Laundry - Holy Moly [Live]
TTITLE11=Jared James Nichols - We're An American Band (Grand Funk Railroad)
EXTD=
EXTT0=
EXTT1=
EXTT2=
EXTT3=
EXTT4=
EXTT5=
EXTT6=
EXTT7=
EXTT8=
EXTT9=
EXTT10=
EXTT11=
PLAYORDER=
